<svg width="180" height="123" viewBox="0 0 180 123" fill="none" xmlns="http://www.w3.org/2000/svg">
<path d="M44.5806 92.984L38.973 91.5821L31.9634 94.3859L29.44 99.9936L28.5989 108.405L33.3653 115.415L41.4964 117.938L52.4312 116.536V127.751L58.0389 143.733L59.1604 158.313H54.3939L42.8983 161.397L38.973 168.406L42.3375 171.491H75.9832L79.3478 166.724L82.7124 152.144H98.1333V160.836L100.657 171.491L119.162 173.453H130.938L138.228 169.248L136.826 162.799L129.536 159.434H120.283V144.854L126.171 133.078V117.938H133.742H142.153L149.443 113.732L150.284 102.237L146.359 94.3859L138.228 92.4233L132.34 94.3859L127.573 89.3391L121.405 84.853L123.368 80.6473V66.6283L120.283 56.2542L117.48 47.5624L129.536 41.9547L140.751 33.8237L143.275 23.73L132.901 16.1597L108.507 10.8325L99.2548 -5.70998L90.8434 -10.7568L84.9554 -9.07455L75.4225 3.54258L70.9364 12.2344L47.9451 17.2812L38.4122 22.3281L35.8888 26.8142L40.3749 39.1509L58.0389 44.1978L61.9642 49.525L57.1977 62.4225L55.5154 74.7593L59.1604 83.7315L49.3471 92.1429L44.5806 92.984Z" fill="#FCFDF5" stroke="black"/>
<path d="M44.3002 40.5527L39.5337 35.5059L43.1786 25.6926L50.1882 29.3375L55.7958 21.2065L64.768 26.8141L71.7775 18.9634L80.1889 24.0103L90.2826 17.5615L97.8529 24.0103L107.105 18.9634L114.956 26.8141L124.209 22.6084L130.097 29.3375L135.985 25.6926L138.508 35.5059L134.863 39.7116L127.012 37.7489L109.909 31.5806H62.5249L44.3002 40.5527Z" fill="#FEABEF"/>
<path d="M90.2781 87.0767C89.9372 86.8181 89.9297 87.3084 89.7772 87.4399C84.8859 91.6622 77.9236 91.4171 73.7576 86.3384C72.9037 85.2981 70.7086 81.9457 72.6062 81.1251C74.5038 80.3046 75.1438 83.2759 76.1576 84.494C78.3886 87.1739 82.0358 87.9899 85.2941 86.7942C90.7297 84.8004 88.0605 80.738 88.8486 76.6831C89.0863 75.459 91.3308 75.4829 91.5641 77.0283C91.8662 79.0311 91.5611 81.1311 91.7615 83.1055C92.2983 88.4114 101.095 88.38 104.123 84.5792C105.061 83.4029 105.776 79.7665 107.733 81.3493C109.179 82.5181 106.93 85.9468 105.979 86.987C101.861 91.4859 94.9795 91.3349 90.477 87.5176C90.3095 87.3756 90.2975 87.0917 90.2781 87.0767Z" fill="#562B52"/>
<path d="M96.5107 64.792C97.5589 64.6127 98.5129 64.6784 99.3339 65.3884C102.238 67.8964 96.0037 72.9886 93.5095 70.6569C91.4235 68.7064 94.2273 65.1821 96.5107 64.792Z" fill="#562B52"/>
<path d="M82.4784 64.7905C84.9607 64.2763 88.8635 67.7678 87.413 70.0904C85.2104 73.6162 78.1464 67.9038 81.5154 65.3016C81.7666 65.1073 82.1749 64.8532 82.4799 64.7905H82.4784Z" fill="#562B52"/>
<path d="M57.0531 157.194C56.132 153.078 56.3234 148.424 57.0247 144.228C51.1704 137.171 49.9188 127.293 51.3289 118.446C49.2609 119.277 47.2481 119.355 45.053 119.001C45.2085 119.971 45.3984 121.253 45.4298 122.22C45.4597 123.1 45.5554 124.925 45.3835 125.695C45.0111 127.354 42.0668 127.444 41.5868 125.694C41.0245 123.641 41.5075 120.76 40.9109 118.619C39.103 118.315 37.4895 118.564 35.6368 117.986C27.6786 115.497 25.7332 105.077 28.4816 98.0997C30.3269 93.417 34.602 90.9823 39.5157 90.7686L35.6293 37.08C31.417 36.3746 27.5126 37.2205 23.5425 38.5448C17.5746 40.5356 10.1742 44.2438 3.65298 42.5623C1.54754 42.0198 2.31315 39.0425 2.23091 37.3401C2.02455 33.0774 1.59987 28.7535 1.09146 24.4549C0.816316 22.1293 0.120982 19.5256 0.010327 17.2329C-0.163133 13.6592 1.87203 15.1434 4.34831 15.2944C6.36403 15.4184 8.27059 15.402 10.2041 15.0612C17.9933 13.6891 25.3414 8.97806 33.4222 10.6819C33.6869 10.374 32.4308 7.16059 34.0951 6.09343C35.4514 5.22355 37.0185 5.89464 37.6316 7.30706L38.6843 19.5391C42.1281 16.9982 46.5005 15.3601 50.5932 14.0972C56.2606 12.3484 62.7279 11.1438 68.6151 10.3367C69.0711 10.2739 69.6663 10.4069 70.0401 10.2844C70.4229 10.1603 72.0439 5.83934 72.4028 5.08007C75.0331 -0.476955 80.6197 -10.074 86.5442 -12.3398C98.0239 -16.7295 105.738 1.91594 109.326 9.82551L109.8 10.2739C117.001 11.3127 124.465 12.607 131.369 14.9177C135.334 16.2449 139.66 18.1865 142.255 21.5658C143.165 18.4809 143.056 14.6517 143.949 11.637C144.285 10.4996 144.889 9.80907 146.125 9.7448C149.012 9.59384 148.605 12.3843 148.069 14.3692C151.695 13.7295 155.095 14.4633 158.503 15.659C164.296 17.6902 168.797 20.5046 175.481 20.0891C176.743 20.0099 179.547 18.8665 179.441 21.0771C178.27 27.1781 177.391 33.3629 176.87 39.5596C176.727 41.271 176.846 43.2349 176.682 44.9074C176.538 46.3602 176.277 46.6696 174.883 46.9849C171.593 47.7293 166.503 46.5889 163.293 45.5621C157.156 43.5996 151.266 39.7659 144.583 40.2262L139.197 90.8358C142.102 91.3694 144.897 91.9912 147.234 93.9058C153.438 98.989 153.302 111.959 146.762 116.675C143.838 118.784 140.329 119.06 136.834 118.655C136.439 118.9 136.282 125.357 136.028 126.429C135.488 128.704 132.13 128.258 132.179 125.732C132.216 123.8 132.708 121.589 132.753 119.646C132.767 119.06 132.569 119.551 132.471 119.551H129.517C129.274 119.551 127.874 118.875 127.765 118.998C128.308 126.77 127.138 135.506 123.041 142.232C122.688 142.81 121.242 144.53 121.154 144.965C121.06 145.424 121.471 146.874 121.495 147.499C121.617 150.729 121.628 154.233 120.933 157.378H127.487C129.902 157.378 134.999 159.69 136.897 161.258C140.52 164.255 142.986 170.015 137.673 172.725C130.983 176.137 111.79 175.098 104.28 173.562C100.883 172.867 98.166 172.214 97.5065 168.338C96.9787 165.232 97.3959 161.475 97.1163 158.211C97.0684 157.649 96.5376 152.973 96.2714 152.938C91.8945 153.582 87.4923 153.259 83.1064 152.969C82.0238 156.543 81.5348 160.278 81.1625 163.993C80.9008 166.601 81.4675 169.018 79.3307 171.153C75.7718 174.71 64.1799 174.511 59.2856 174.601C54.1252 174.696 47.5816 174.903 42.5797 173.602C34.0084 171.374 37.7393 162.964 43.4575 159.746C45.0769 158.834 49.4777 157.194 51.2422 157.194H57.0576H57.0531ZM105.421 9.75825C100.402 0.765079 93.6516 -18.3064 81.9789 -3.61418C78.9254 0.230004 76.5718 5.0995 74.5904 9.57441L83.1677 8.83009C90.619 8.72397 98.0239 8.96162 105.421 9.75825ZM139.391 30.0568C139.68 30.0284 139.671 29.7758 139.745 29.583C140.049 28.8162 140.737 26.5085 140.604 25.8046C139.699 21.0233 128.355 17.7052 124.252 16.6769C109.734 13.036 92.7005 11.7327 77.8219 13.0808C68.9829 13.8819 58.9178 15.3108 50.4915 18.0549C48.1812 18.8067 39.4739 22.0247 39.1434 24.6268L39.7894 30.0553C40.5356 28.5203 40.7673 26.7208 41.5972 25.2187C42.2268 24.0783 42.6859 23.461 44.0795 23.9243C44.9588 24.2158 49.3012 27.6953 49.8426 27.2858C50.9192 25.3353 52.277 23.18 53.6557 21.4044C54.1267 20.7991 54.7637 19.7483 55.5622 19.6168C57.3716 19.3194 62.6666 23.5582 64.6853 24.1216C65.1548 24.0349 69.6678 17.8786 70.9882 16.9549C72.0379 16.221 72.7871 16.7875 73.7889 17.2927C74.9673 17.886 80.5299 21.935 80.9576 21.935C81.4436 21.935 87.2575 16.6007 88.5599 15.8817C90.0837 15.0403 90.6758 15.6127 91.9259 16.5095C92.9577 17.2508 98.0718 21.9514 98.6819 21.929C99.1828 21.9111 104.62 17.7964 105.731 17.1746C106.153 16.9384 107.086 16.3795 107.527 16.4034C108.343 16.4482 109.64 17.9144 110.223 18.5183C110.962 19.282 114.713 24.014 115.149 24.1261C115.795 24.292 121.556 20.2939 122.96 19.8201C124.327 19.3582 124.645 19.7558 125.535 20.7423C127.229 22.6195 128.512 25.4623 130.089 27.4875C132.107 27.1348 134.392 23.5955 136.442 24.2337C137.754 24.6418 139.129 28.7191 139.388 30.0553L139.391 30.0568ZM135.511 27.8432C134.237 28.7834 130.863 31.668 129.275 31.2331C128.753 31.0896 128.215 30.4603 127.866 30.0418C126.283 28.1407 125.025 25.5445 123.421 23.6015C121.586 24.7075 119.724 25.8987 117.798 26.8359C117.04 27.2035 115.394 28.1063 114.645 27.9568C113.122 27.7102 107.975 20.7363 107.361 20.69C104.947 22.0471 102.639 24.0334 100.191 25.2904C98.1615 26.3322 98.0733 26.2171 96.2878 24.8854C95.4026 24.2248 90.2407 19.5316 89.822 19.5316C89.3405 19.7932 88.868 20.2042 88.4343 20.551C86.7551 21.8916 85.1326 23.6986 83.4369 24.9676C80.9337 26.8418 80.2563 25.8225 77.9296 24.4146C77.0847 23.9019 72.7826 20.8215 72.2786 20.8349C71.4487 20.8559 66.864 27.7715 65.2266 27.9912C63.4397 28.2304 58.3271 24.3234 56.4011 23.7659L56.1634 23.8182C55.1226 24.984 52.1334 30.5321 50.97 30.8968C49.231 31.4423 45.6018 28.7131 44.0481 27.8447C42.9924 29.722 41.7916 33.3734 42.0892 35.5092C42.173 36.1115 43.2346 37.5718 43.8118 37.4178C44.0347 37.358 45.7812 35.9292 46.2866 35.6288C51.5547 32.5005 59.652 31.1329 65.6932 30.1151C84.8993 26.8807 105.534 27.4158 124.405 32.3914C128.483 33.466 132.773 34.7738 135.971 37.6136C138.181 35.9905 137.513 34.1685 136.894 31.9012C136.517 30.5201 135.871 29.2258 135.508 27.8418L135.511 27.8432ZM119.638 44.0809C122.068 42.1498 122.386 37.1189 119.208 35.7424C116.904 34.7439 114.691 36.0921 112.903 37.4432C112.313 37.8886 112.1 38.6135 111.237 38.5627C110.707 38.5313 106.869 36.3955 105.839 36.0039C96.8351 32.5812 81.1012 32.5678 72.2502 36.4822C71.54 36.7961 68.9994 38.3669 68.5941 38.3744C67.8599 38.3878 66.9268 37.2534 66.2659 36.808C64.4685 35.5989 61.9548 34.7066 59.9436 35.9905C57.3866 37.6226 57.6064 42.7477 60.1888 44.2632C60.3369 43.5832 60.6329 42.8269 61.0681 42.2799C61.3029 41.9839 61.9952 41.5505 62.0251 41.3816C62.0655 41.1559 60.3144 39.0485 61.9503 38.7331C63.6745 38.4013 64.5911 39.9512 65.8248 40.7538C70.091 40.9138 74.4918 40.5521 78.7415 40.7598C80.4507 40.8435 82.1972 41.1918 83.6417 41.3965C85.4855 41.6566 87.407 42.2873 89.2687 42.4174C92.7364 42.6595 95.5716 41.6133 98.8927 41.1544C103.162 40.564 108.037 40.6716 112.351 40.7509C112.952 40.7613 113.556 41.0707 114.19 40.9452C114.562 40.8719 115.261 39.7539 115.771 39.3863C118.437 37.4597 119.546 39.4072 117.791 41.679C118.908 41.8883 119.572 42.9853 119.639 44.0794L119.638 44.0809ZM122.405 84.6735C125.798 86.9079 129.111 89.4712 131.756 92.5965C132.062 92.6877 133.26 91.9762 133.7 91.8163C134.139 91.6564 134.732 91.8253 134.923 91.3784L140.679 37.2564L139.384 39.3728C134.418 44.6967 126.566 46.4215 119.823 48.5169C120.327 53.2489 122.637 57.5251 123.865 62.0882C125.909 69.6853 126.16 77.562 122.404 84.6735H122.405ZM60.3757 48.511C53.9218 46.4932 45.7857 44.9298 40.715 40.2053C40.3785 39.8929 40.2589 39.2353 39.6982 39.2861L43.7505 91.2364C44.416 91.1437 46.2702 92.1586 46.7083 91.9732C46.8788 91.9015 47.9106 90.5444 48.2769 90.2081C50.8714 87.8286 54.019 85.7421 56.8512 83.6437C53.542 77.4918 53.7903 70.4073 55.4426 63.7861C56.7421 58.5803 59.2587 53.7661 60.3757 48.5125V48.511ZM117.054 52.5704C116.085 59.0929 110.549 60.7505 104.642 60.0839C100.597 59.628 96.8635 56.703 94.8209 53.2923C93.846 51.6631 92.9727 48.0521 91.1753 47.5275C87.9782 46.5919 87.5042 50.4988 86.4395 52.5106C82.9135 59.1766 75.4622 62.3109 68.3175 59.3022C64.7511 57.8001 64.4012 55.7808 62.9776 52.6451C62.5993 51.8111 62.5844 52.8902 62.4602 53.2699C59.2811 62.964 53.5151 74.8194 61.2027 84.1264C62.0685 85.1742 64.7975 86.9468 64.5896 88.2277C64.2591 90.2649 62.1238 89.401 61.0247 88.5475C60.4056 88.0663 59.2677 86.3579 58.5245 86.5956C57.7439 86.8467 55.1974 88.8614 54.3824 89.4817C52.5446 90.8792 50.7876 92.4082 49.1143 93.997L50.9611 95.2838C55.5473 99.1684 54.3301 107.245 48.1992 108.487C47.9599 109.924 48.8093 111.188 48.7465 112.623C48.6852 114.016 48.1214 114.929 47.2661 115.95C49.0022 116.215 50.7562 115.415 52.2022 114.518C52.5775 112.88 52.9888 111.232 53.4957 109.629C54.2583 107.214 55.6146 102.433 56.8183 100.413C57.246 99.696 57.3252 100.007 57.6781 99.9904C57.8202 99.9844 57.8052 99.6407 57.8815 99.6183C58.3705 99.4733 58.3152 99.8843 58.4019 99.9232C58.6576 100.037 58.9462 99.9979 59.1869 100.162C59.7432 100.542 59.6625 101.451 59.5518 102.032C59.1675 104.06 57.6004 107.196 56.92 109.365C54.0818 118.413 52.2022 130.303 57.0875 138.984C58.034 140.667 59.5368 141.982 60.2935 143.716C59.5324 148.004 59.0897 152.531 59.9361 156.846C60.3399 158.9 62.1073 161.426 58.4542 161.05C57.3447 160.937 56.2979 160.503 55.0434 160.444C50.6171 160.233 44.3053 161.681 41.7961 165.66C40.5909 167.571 40.0227 170.063 42.976 170.446C44.0272 170.582 43.6489 169.837 43.933 169.087C45.038 166.17 49.2668 162.97 52.4893 163.694C53.723 163.972 53.9473 165.699 52.754 166.279C51.2422 167.014 50.01 166.63 48.3726 167.989C47.7132 168.536 45.7408 170.915 47.2152 171.171C48.73 171.434 50.9551 171.54 52.5207 171.597C57.8038 171.786 64.2726 171.502 69.5108 170.849C71.8345 170.559 76.9082 170.21 77.6783 167.573C78.2929 162.526 78.4006 157.392 79.7539 152.465C79.7853 151.589 77.94 151.636 78.097 150.108C78.3228 147.92 81.964 149.422 83.3846 149.603C87.8227 150.173 92.0052 150.059 96.4404 149.603C97.5454 149.49 98.7881 148.694 99.2815 150.321C99.7271 151.788 100.099 155.447 100.249 157.105C100.557 160.544 100.183 164.243 100.636 167.604C100.756 168.495 101.444 169.474 102.281 169.836C104.9 170.966 112.23 171.429 115.289 171.597C120.581 171.676 125.875 172.003 131.135 171.181C132.352 170.819 130.862 168.848 130.349 168.356C128.649 166.724 127.398 167.24 125.783 166.461C124.103 165.651 124.853 163.677 126.558 163.654C129.773 163.612 134.639 166.95 134.592 170.482C139.683 169.586 136.856 165.201 134.099 163.316C130.788 161.053 126.096 160.167 122.153 160.725C120.432 160.967 117.93 162.425 117.239 160.042C117.602 158.832 117.964 157.595 118.136 156.341C118.549 153.344 118.685 149.08 118.241 146.106C118.035 144.723 117.315 144.982 118.341 143.261C119.925 140.608 121.265 139.455 122.41 136.256C125.999 126.229 125.106 116.993 121.906 107.045C121.402 105.476 120.18 103.113 119.896 101.661C119.578 100.029 121.851 98.9113 122.812 100.605C123.877 102.476 125.14 106.712 125.779 108.895C126.38 110.949 126.844 113.034 127.301 115.124C128.641 115.937 130.225 116.555 131.822 116.416C130.718 115.629 130.059 114.127 129.99 112.79C129.926 111.544 130.886 109.725 130.5 108.605C130.438 108.429 127.985 107.114 127.422 106.516C124.109 102.995 125.347 97.0998 129.235 94.553C126.643 91.8103 123.605 89.5594 120.571 87.3354C120.076 87.2069 118.003 90.6819 116.144 89.5549C113.794 88.1306 117.058 86.1726 117.981 85.1473C125.586 76.6937 121.23 62.2017 117.327 52.9425C117.253 52.7662 117.309 52.5196 117.055 52.5749L117.054 52.5704ZM45.0096 99.0249C45.6541 98.3807 45.1592 95.0865 44.1976 94.4797C42.7591 93.571 38.6365 93.7817 37.0155 94.2645C31.0342 96.0446 29.6031 102.9 30.8921 108.332C32.1258 113.527 36.048 115.787 41.2653 115.303C44.8915 114.967 47.5681 111.583 43.124 110.13C41.9397 109.743 38.5871 109.912 38.2118 109.454C37.7303 108.867 37.7168 107.904 38.309 107.366C40.4144 105.452 45.7932 109.354 45.4313 104.872C45.2279 102.356 41.8036 101.875 39.7954 102.025C38.8757 102.092 37.5509 102.893 37.0275 101.649C36.1333 99.5211 39.2047 98.9068 40.6956 98.9038C41.6107 98.9023 44.3576 99.678 45.0096 99.0264V99.0249ZM136.949 94.3228C134.986 94.5589 133.789 95.4273 133.842 97.5078C133.929 100.919 136.572 99.2446 138.935 99.4314C140.354 99.545 142.706 100.23 142.307 102.071C141.956 103.694 139.738 102.54 138.56 102.494C135.82 102.383 132.964 103.141 133.707 106.503C134.21 108.773 139.696 106.361 140.845 108.599C141.13 109.155 141.025 109.691 140.604 110.155C139.686 111.167 137.897 110.273 136.723 110.318C132.813 110.466 132.278 114.086 136.067 115.215C141.456 116.82 146.658 114.553 148.127 109C150.279 100.865 146.08 93.2227 136.949 94.3228ZM48.1917 97.2254C48.3367 99.6721 47.8687 102.125 48.3741 104.515C48.428 104.767 48.3532 104.979 48.6523 105.156C50.1715 104.029 50.7637 102.947 50.5887 101.008C50.4556 99.5465 49.5839 97.8068 48.1917 97.2254ZM130.896 97.4092C129.579 97.8815 128.771 99.8738 128.675 101.183C128.541 103.026 129.031 104.181 130.621 105.156C131.5 102.621 130.745 100.014 130.896 97.4077V97.4092Z" fill="#562B52"/>
<path d="M80.9297 42.2351L71.8645 57.9366" stroke="#FCFDF5" stroke-width="5"/>
<rect x="67.3029" y="41.3132" width="16.2621" height="2.24305" transform="rotate(0.568769 67.3029 41.3132)" fill="#562B52"/>
<rect x="69.7395" y="57.1743" width="4.58626" height="2.19374" transform="rotate(0.568769 69.7395 57.1743)" fill="#562B52"/>
<path d="M113.465 42.2351L104.399 57.9366" stroke="#FCFDF5" stroke-width="5"/>
<rect x="99.8378" y="41.3132" width="16.2621" height="2.24305" transform="rotate(0.568769 99.8378 41.3132)" fill="#562B52"/>
<rect x="102.275" y="57.1743" width="4.58626" height="2.19374" transform="rotate(0.568769 102.275 57.1743)" fill="#562B52"/>
</svg>
