<svg width="88" height="40" viewBox="0 0 88 40" fill="none" xmlns="http://www.w3.org/2000/svg">
<g clip-path="url(#clip0_4820_6558)">
<path d="M87.6165 9.10496C87.3729 8.64337 87.027 8.20341 86.5873 7.79231C86.4965 7.69422 86.3999 7.59901 86.299 7.50381C86.2082 7.40572 86.1116 7.31052 86.0107 7.21531C85.9199 7.11722 85.8233 7.02202 85.7224 6.92682C85.6315 6.82873 85.535 6.73352 85.4341 6.63832C85.3432 6.54023 85.2467 6.44503 85.1457 6.34982C85.0549 6.25174 84.9584 6.15653 84.8574 6.06133C84.7666 5.96324 84.67 5.86804 84.5691 5.77283C84.4783 5.67474 84.3817 5.57954 84.2808 5.48434C84.19 5.38625 84.0934 5.29104 83.9925 5.19584C83.9017 5.09775 83.8051 5.00255 83.7042 4.90734C83.6134 4.80925 83.5168 4.71405 83.4159 4.61885C83.3251 4.52076 83.2285 4.42555 83.1276 4.33035C83.0368 4.23226 82.9402 4.13706 82.8393 4.04185C82.7485 3.94377 82.6519 3.84856 82.551 3.75336C82.4602 3.65527 82.3636 3.56007 82.2627 3.46486C82.1719 3.36677 82.0753 3.27157 81.9744 3.17637C81.8836 3.07828 81.787 2.98307 81.6861 2.88787C81.5952 2.78978 81.4987 2.69458 81.3978 2.59937C81.3069 2.50128 81.2104 2.40464 81.1094 2.31088C80.9048 2.09018 80.6741 1.87813 80.4175 1.6733C79.7919 1.1742 79.0351 0.76598 78.1673 0.461616C77.298 0.15581 76.3236 0.00146484 75.2684 0.00146484C73.1752 0.00146484 71.4252 0.454404 70.0644 1.34586C68.9198 2.09595 68.1227 3.10136 67.6873 4.33324C67.6412 4.28708 67.5965 4.24236 67.5489 4.19764C67.4567 4.09811 67.3615 4.00147 67.2606 3.90915C67.1684 3.80962 67.0732 3.71297 66.9723 3.62065C66.8801 3.52112 66.7849 3.42447 66.684 3.33215C66.5917 3.23262 66.4966 3.13598 66.3957 3.04366C66.3034 2.94413 66.2083 2.84748 66.1074 2.75516C66.0151 2.65563 65.92 2.55898 65.8191 2.46667C65.7268 2.36713 65.6317 2.27049 65.5308 2.17817C65.3708 2.00651 65.2007 1.84207 65.0147 1.68917C64.3372 1.13093 63.527 0.705396 62.6045 0.421227C61.6977 0.142828 60.7233 0.00146484 59.7055 0.00146484C57.2146 0.00146484 55.2454 0.572687 53.8515 1.69782C53.5286 1.95891 53.2302 2.24597 52.9548 2.55754C52.9044 2.50561 52.8481 2.45945 52.789 2.41906C52.7703 2.39166 52.7516 2.36425 52.7314 2.33828C52.6636 2.25606 52.5858 2.18682 52.5007 2.13057C52.482 2.10316 52.4633 2.07575 52.4431 2.04979C52.3753 1.96757 52.2975 1.89833 52.2124 1.84207C52.1937 1.81466 52.1749 1.78726 52.1548 1.76129C52.087 1.67907 52.0092 1.60983 51.9241 1.55357C51.9054 1.52617 51.8866 1.49876 51.8665 1.4728C51.7987 1.39057 51.7209 1.32134 51.6358 1.26508C51.6171 1.23767 51.5983 1.21026 51.5781 1.1843C51.5104 1.10208 51.4326 1.03284 51.3475 0.976582C51.3288 0.949175 51.31 0.921768 51.2898 0.895803C51.2221 0.813582 51.1443 0.744343 51.0592 0.688086C51.0405 0.660679 51.0217 0.633272 51.0015 0.607307C50.7983 0.357758 50.5028 0.219279 50.1712 0.219279H46.7072C46.2675 0.219279 45.9014 0.351988 45.616 0.613077C45.4098 0.802042 45.283 0.930423 45.208 1.02418L42.8122 3.96108C42.7891 3.94232 42.766 3.92357 42.7401 3.90626C42.7314 3.89472 42.7257 3.88462 42.717 3.87308C42.655 3.78798 42.5686 3.6971 42.4518 3.61776C42.4431 3.60623 42.4374 3.59613 42.4287 3.58459C42.3667 3.49948 42.2802 3.40861 42.1635 3.32927C42.1548 3.31773 42.1491 3.30763 42.1404 3.29609C42.0784 3.21099 41.9919 3.12011 41.8752 3.04077C41.8665 3.02923 41.8608 3.01914 41.8521 3.0076C41.7901 2.92249 41.7036 2.83161 41.5869 2.75228C41.5782 2.74074 41.5724 2.73064 41.5638 2.7191C41.5018 2.63399 41.4153 2.54312 41.2986 2.46378C41.2899 2.45224 41.2841 2.44214 41.2755 2.4306C41.2135 2.3455 41.127 2.25462 41.0103 2.17528C41.0016 2.16374 40.9958 2.15365 40.9872 2.14211C40.9252 2.057 40.8387 1.96612 40.7219 1.88679C40.7133 1.87525 40.7075 1.86515 40.6989 1.85361C40.6369 1.7685 40.5504 1.67763 40.4336 1.59829C40.425 1.58675 40.4192 1.57665 40.4106 1.56511C40.3486 1.48001 40.2621 1.38913 40.1453 1.3098C40.1367 1.29826 40.1309 1.28816 40.1223 1.27662C40.0603 1.19151 39.9738 1.10064 39.857 1.0213C39.8484 1.00976 39.8426 0.999662 39.834 0.988122C39.772 0.903016 39.6855 0.812139 39.5687 0.732803C39.5601 0.721263 39.5543 0.711166 39.5456 0.699626C39.3871 0.481811 39.0699 0.220722 38.4659 0.220722H35.0019C34.7064 0.220722 34.4224 0.328908 34.1817 0.532298C33.9438 0.732803 33.7896 0.989564 33.7363 1.27806L32.9016 5.19151C32.8569 5.14824 32.8079 5.10496 32.7488 5.06602C32.7373 5.04871 32.7272 5.0314 32.7142 5.01553C32.6537 4.93619 32.5701 4.85253 32.4605 4.77752C32.449 4.76021 32.4389 4.7429 32.4259 4.72703C32.3654 4.6477 32.2817 4.56403 32.1722 4.48902C32.1607 4.47171 32.1506 4.4544 32.1376 4.43854C32.0771 4.3592 31.9934 4.27554 31.8839 4.20053C31.8724 4.18322 31.8623 4.16591 31.8493 4.15004C31.7887 4.0707 31.7051 3.98704 31.5956 3.91203C31.584 3.89472 31.574 3.87741 31.561 3.86154C31.5004 3.78221 31.4168 3.69854 31.3073 3.62354C31.2957 3.60623 31.2856 3.58892 31.2727 3.57305C31.2121 3.49371 31.1285 3.41005 31.019 3.33504C31.0074 3.31773 30.9973 3.30042 30.9844 3.28455C30.9238 3.20522 30.8402 3.12155 30.7307 3.04654C30.7191 3.02923 30.709 3.01192 30.6961 2.99606C30.6355 2.91672 30.5519 2.83306 30.4423 2.75805C30.4308 2.74074 30.4207 2.72343 30.4078 2.70756C30.3472 2.62822 30.2636 2.54456 30.154 2.46955C30.1425 2.45224 30.1324 2.43493 30.1194 2.41906C30.0589 2.33973 29.9753 2.25606 29.8657 2.18105C29.8542 2.16374 29.8441 2.14643 29.8311 2.13057C29.7706 2.05123 29.687 1.96757 29.5774 1.89256C29.5659 1.87525 29.5558 1.85794 29.5428 1.84207C29.4823 1.76273 29.3987 1.67907 29.2891 1.60406C29.2776 1.58675 29.2675 1.56944 29.2545 1.55357C29.194 1.47424 29.1104 1.39057 29.0008 1.31557C28.9893 1.29826 28.9792 1.28095 28.9662 1.26508C28.9057 1.18574 28.8221 1.10208 28.7125 1.02707C28.701 1.00976 28.6909 0.992449 28.6779 0.976582C28.6174 0.897246 28.5338 0.813582 28.4242 0.738573C28.4127 0.721263 28.4026 0.705396 28.3896 0.688086C28.2253 0.476041 27.9052 0.223607 27.3085 0.223607H22.4418C22.0108 0.223607 21.6418 0.350545 21.3463 0.601537C21.0998 0.810697 20.9196 1.02274 20.7999 1.242L20.0071 2.65563C19.935 2.54312 19.8399 2.4508 19.7289 2.383C19.6553 2.26328 19.5573 2.16519 19.4405 2.0945C19.367 1.97478 19.269 1.87669 19.1522 1.80601C19.0787 1.68628 18.9807 1.58819 18.8639 1.51751C18.7904 1.39779 18.6924 1.2997 18.5756 1.22902C18.5021 1.10929 18.4041 1.0112 18.2873 0.94052C18.2138 0.820794 18.1158 0.722705 17.999 0.652024C17.8304 0.379395 17.5392 0.223607 17.1817 0.223607H12.8844C12.4578 0.223607 12.0887 0.34766 11.786 0.594325C11.5164 0.815024 11.3305 1.04005 11.2224 1.2795L10.3315 3.18358C10.2854 3.13598 10.2306 3.08982 10.1672 3.04654C10.1556 3.03068 10.1455 3.01337 10.1326 2.99606C10.072 2.91672 9.9884 2.83306 9.87884 2.75805C9.86731 2.74218 9.85722 2.72487 9.84425 2.70756C9.7837 2.62822 9.70009 2.54456 9.59054 2.46955C9.579 2.45368 9.56891 2.43637 9.55594 2.41906C9.4954 2.33973 9.41179 2.25606 9.30223 2.18105C9.2907 2.16519 9.28061 2.14788 9.26763 2.13057C9.20709 2.05123 9.12348 1.96757 9.01392 1.89256C9.00239 1.87669 8.9923 1.85938 8.97933 1.84207C8.91878 1.76273 8.83517 1.67907 8.72561 1.60406C8.71408 1.58819 8.70399 1.57088 8.69102 1.55357C8.63047 1.47424 8.54686 1.39057 8.43731 1.31557C8.42578 1.2997 8.41568 1.28239 8.40271 1.26508C8.34217 1.18574 8.25856 1.10208 8.149 1.02707C8.13747 1.0112 8.12738 0.993892 8.1144 0.976582C8.05386 0.897246 7.97025 0.813582 7.86069 0.738573C7.84916 0.722705 7.83907 0.705396 7.8261 0.688086C7.66176 0.476041 7.34174 0.223607 6.74494 0.223607H2.82108C2.5198 0.223607 2.24015 0.330351 2.01238 0.532298C1.82931 0.693856 1.61884 0.988122 1.65488 1.48434L2.81532 15.4591C2.82253 15.7461 2.93208 16.0217 3.14255 16.2784C3.19877 16.3477 3.27517 16.4212 3.37175 16.489C3.39049 16.515 3.41067 16.541 3.43085 16.5669C3.48707 16.6362 3.56348 16.7097 3.66006 16.7775C3.6788 16.8035 3.69898 16.8294 3.71916 16.8554C3.77538 16.9247 3.85178 16.9982 3.94837 17.066C3.96711 17.092 3.98729 17.1179 4.00747 17.1439C4.06369 17.2131 4.14009 17.2867 4.23667 17.3545C4.25541 17.3805 4.27559 17.4064 4.29578 17.4324C4.352 17.5016 4.4284 17.5752 4.52498 17.643C4.54372 17.669 4.5639 17.6949 4.58408 17.7209C4.6403 17.7901 4.7167 17.8637 4.81329 17.9315C4.83203 17.9575 4.85221 17.9834 4.87239 18.0094C4.92861 18.0786 5.00501 18.1522 5.10159 18.22C5.12033 18.246 5.14052 18.2719 5.1607 18.2979C5.21692 18.3671 5.29332 18.4407 5.3899 18.5085C5.40864 18.5345 5.42882 18.5604 5.449 18.5864C5.50522 18.6556 5.58163 18.7292 5.67821 18.797C5.69695 18.823 5.71713 18.8489 5.73731 18.8749C5.79353 18.9441 5.86993 19.0177 5.96652 19.0855C5.98526 19.1115 6.00544 19.1374 6.02562 19.1634C6.08184 19.2326 6.15824 19.3062 6.25482 19.374C6.27356 19.4 6.29374 19.4259 6.31393 19.4519C6.37015 19.5211 6.44655 19.5947 6.54313 19.6625C6.56187 19.6884 6.58205 19.7144 6.60223 19.7404C6.65845 19.8096 6.73485 19.8832 6.83144 19.951C6.85018 19.9769 6.87036 20.0029 6.89054 20.0289C6.94676 20.0981 7.02316 20.1717 7.11974 20.2395C7.13848 20.2654 7.15867 20.2914 7.17885 20.3174C7.23507 20.3866 7.31147 20.4602 7.40805 20.528C7.42679 20.5539 7.44697 20.5799 7.46715 20.6059C7.52337 20.6751 7.59978 20.7487 7.69636 20.8165C7.7151 20.8424 7.73528 20.8684 7.75546 20.8944C7.81168 20.9636 7.88808 21.0372 7.98467 21.105C8.00341 21.1309 8.02359 21.1569 8.04377 21.1829C8.09999 21.2521 8.17639 21.3257 8.27297 21.3935C8.29171 21.4194 8.31189 21.4454 8.33208 21.4714C8.3883 21.5406 8.4647 21.6142 8.56128 21.682C8.58002 21.7079 8.6002 21.7339 8.62038 21.7599C8.6766 21.8291 8.753 21.9027 8.84959 21.9705C8.86833 21.9964 8.88851 22.0224 8.90869 22.0483C8.99662 22.1551 9.12636 22.2719 9.31232 22.3614L7.83186 29.2983C7.78573 29.2535 7.73816 29.2132 7.68483 29.18C7.67474 29.1641 7.66464 29.1468 7.65311 29.1324C7.58104 29.0357 7.49454 28.9549 7.39652 28.8915C7.38643 28.8756 7.37634 28.8583 7.3648 28.8439C7.29273 28.7472 7.20624 28.6664 7.10821 28.603C7.09812 28.5871 7.08803 28.5698 7.0765 28.5554C7.00442 28.4587 6.91793 28.378 6.8199 28.3145C6.80981 28.2986 6.79972 28.2813 6.78819 28.2669C6.59214 28.0058 6.29519 27.8615 5.95498 27.8615H2.13491C1.84084 27.8615 1.56407 27.9625 1.31324 28.163C1.06241 28.365 0.900959 28.6246 0.844739 28.9174L0.0360372 32.7227L0.0331541 32.74C-0.0259489 33.0689 0.049011 33.3747 0.252268 33.6228C0.32002 33.705 0.397863 33.7743 0.482913 33.832C0.501653 33.8594 0.520393 33.8853 0.540575 33.9113C0.608327 33.9935 0.68617 34.0628 0.77122 34.1205C0.78996 34.1479 0.8087 34.1738 0.828882 34.1998C0.896634 34.282 0.974477 34.3513 1.05953 34.409C1.07827 34.4364 1.09701 34.4623 1.11719 34.4883C1.18494 34.5705 1.26278 34.6398 1.34783 34.6975C1.36657 34.7249 1.38531 34.7508 1.4055 34.7768C1.47325 34.859 1.55109 34.9283 1.63614 34.986C1.65488 35.0134 1.67362 35.0393 1.6938 35.0653C1.76156 35.1475 1.8394 35.2168 1.92445 35.2745C1.94319 35.3019 1.96193 35.3278 1.98211 35.3538C2.04986 35.436 2.12771 35.5053 2.21276 35.563C2.2315 35.5904 2.25024 35.6163 2.27042 35.6423C2.33817 35.7245 2.41601 35.7937 2.50106 35.8514C2.5198 35.8789 2.53854 35.9048 2.55872 35.9308C2.62648 36.013 2.70432 36.0822 2.78937 36.1399C2.80811 36.1674 2.82685 36.1933 2.84703 36.2193C2.91478 36.3015 2.99263 36.3707 3.07768 36.4284C3.09642 36.4558 3.11516 36.4818 3.13534 36.5078C3.20309 36.59 3.28093 36.6592 3.36598 36.7169C3.38472 36.7443 3.40346 36.7703 3.42365 36.7963C3.4914 36.8785 3.56924 36.9477 3.65429 37.0054C3.67303 37.0328 3.69177 37.0588 3.71195 37.0848C3.77971 37.167 3.85755 37.2362 3.9426 37.2939C3.96134 37.3213 3.98008 37.3473 4.00026 37.3733C4.06801 37.4555 4.14586 37.5247 4.23091 37.5824C4.24965 37.6098 4.26839 37.6358 4.28857 37.6618C4.35632 37.744 4.43416 37.8132 4.51921 37.8709C4.53795 37.8983 4.55669 37.9243 4.57688 37.9503C4.64463 38.0325 4.72247 38.1017 4.80752 38.1594C4.82626 38.1868 4.845 38.2128 4.86518 38.2388C4.93293 38.321 5.01078 38.3902 5.09583 38.4479C5.11457 38.4753 5.13331 38.5013 5.15349 38.5272C5.22124 38.6095 5.29908 38.6787 5.38413 38.7364C5.40287 38.7638 5.42161 38.7898 5.4418 38.8157C5.50955 38.898 5.58739 38.9672 5.67244 39.0249C5.69118 39.0523 5.70992 39.0783 5.7301 39.1042C5.79786 39.1865 5.8757 39.2557 5.96075 39.3134C5.97949 39.3408 5.99823 39.3668 6.01841 39.3927C6.22167 39.6437 6.51718 39.7808 6.85018 39.7808H10.6645C10.96 39.7808 11.244 39.6726 11.4847 39.4692C11.7226 39.2701 11.8768 39.0119 11.9316 38.7234L12.0138 38.334C12.057 38.3758 12.1046 38.4133 12.155 38.4465C12.1723 38.4724 12.1911 38.4998 12.2127 38.5244C12.2804 38.608 12.3583 38.6773 12.4433 38.735C12.4606 38.7609 12.4794 38.7883 12.501 38.8129C12.5687 38.8965 12.6466 38.9658 12.7316 39.0235C12.7489 39.0494 12.7677 39.0768 12.7893 39.1014C12.8571 39.185 12.9349 39.2543 13.02 39.312C13.0372 39.3379 13.056 39.3653 13.0776 39.3899C13.2809 39.6408 13.5764 39.7793 13.9094 39.7793H18.097C18.3926 39.7793 18.6765 39.6711 18.9173 39.4677C19.1551 39.2687 19.3094 39.0105 19.3641 38.722L20.1426 35.061H25.5065C25.7011 35.061 25.8871 35.0163 26.063 34.9283C26.0961 34.96 26.1278 34.9932 26.1624 35.0249C26.2547 35.1244 26.3498 35.2211 26.4507 35.3134C26.543 35.4129 26.6381 35.5096 26.739 35.6019C26.8313 35.7014 26.9264 35.7981 27.0274 35.8904C27.1196 35.9899 27.2148 36.0866 27.3157 36.1789C27.4079 36.2784 27.5031 36.3751 27.604 36.4674C27.6962 36.5669 27.7914 36.6636 27.8923 36.7559C27.9845 36.8554 28.0797 36.9521 28.1806 37.0444C28.2728 37.1439 28.368 37.2406 28.4689 37.3329C28.5611 37.4324 28.6563 37.5291 28.7572 37.6214C28.8495 37.7209 28.9446 37.8175 29.0455 37.9099C29.2113 38.0902 29.3915 38.2589 29.589 38.4133C30.2665 38.9485 31.0737 39.3509 31.9906 39.612C32.8858 39.8673 33.8386 39.9957 34.8232 39.9957C37.2507 39.9957 39.1737 39.4692 40.5432 38.4306C40.9281 38.1378 41.2784 37.7974 41.5941 37.4108C41.6517 37.4742 41.7166 37.5305 41.7858 37.5767C41.8031 37.6026 41.8218 37.63 41.8435 37.6545C41.9112 37.7382 41.9891 37.8075 42.0741 37.8652C42.0914 37.8911 42.1101 37.9185 42.1318 37.943C42.1995 38.0267 42.2774 38.0959 42.3624 38.1536C42.3797 38.1796 42.3984 38.207 42.4201 38.2315C42.4878 38.3152 42.5657 38.3844 42.6507 38.4421C42.668 38.4681 42.6868 38.4955 42.7084 38.52C42.7761 38.6037 42.854 38.6729 42.939 38.7306C42.9563 38.7566 42.9751 38.784 42.9967 38.8085C43.0644 38.8922 43.1423 38.9614 43.2273 39.0191C43.2446 39.0451 43.2634 39.0725 43.285 39.097C43.3527 39.1807 43.4306 39.2499 43.5156 39.3076C43.5329 39.3336 43.5517 39.361 43.5733 39.3855C43.7766 39.6365 44.0721 39.775 44.4051 39.775H48.3736C48.6691 39.775 48.9531 39.6668 49.1939 39.4634C49.4317 39.2644 49.5845 39.0062 49.6407 38.7191L50.0371 36.8742C50.0717 36.9045 50.1078 36.9333 50.1467 36.9593C50.1669 36.9852 50.1856 37.0098 50.2073 37.0386C50.2721 37.1208 50.3485 37.1901 50.435 37.2478C50.4552 37.2737 50.4739 37.2983 50.4956 37.3271C50.5604 37.4093 50.6368 37.4786 50.7233 37.5363C50.7435 37.5622 50.7622 37.5868 50.7839 37.6156C50.8487 37.6978 50.9251 37.7671 51.0116 37.8248C51.0318 37.8507 51.0506 37.8752 51.0722 37.9041C51.137 37.9863 51.2134 38.0556 51.2999 38.1133C51.3201 38.1392 51.3389 38.1637 51.3605 38.1926C51.4253 38.2748 51.5017 38.3441 51.5882 38.4018C51.6084 38.4277 51.6272 38.4522 51.6488 38.4811C51.7137 38.5633 51.7901 38.6326 51.8765 38.6903C51.8967 38.7162 51.9155 38.7407 51.9371 38.7696C52.002 38.8518 52.0784 38.921 52.1649 38.9787C52.185 39.0047 52.2038 39.0292 52.2254 39.0581C52.2903 39.1403 52.3667 39.2095 52.4532 39.2672C52.4733 39.2932 52.4921 39.3177 52.5137 39.3466C52.7371 39.6307 53.0932 39.775 53.5689 39.775H57.0329C57.3284 39.775 57.6124 39.6668 57.8532 39.4634C58.091 39.2644 58.2438 39.0062 58.3 38.7191L61.3229 24.5554L61.3258 24.5381C61.3849 24.2106 61.31 23.9048 61.1067 23.6538C61.0389 23.5716 60.9611 23.5024 60.8775 23.4461C60.8588 23.4187 60.84 23.3913 60.8184 23.3653C60.7506 23.2831 60.6728 23.2139 60.5892 23.1576C60.5705 23.1302 60.5517 23.1028 60.5301 23.0768C60.4623 22.9946 60.3845 22.9254 60.3009 22.8691C60.2821 22.8417 60.2634 22.8143 60.2418 22.7883C60.174 22.7061 60.0962 22.6369 60.0126 22.5806C59.9938 22.5532 59.9751 22.5258 59.9535 22.4998C59.8857 22.4176 59.8079 22.3484 59.7243 22.2921C59.7055 22.2647 59.6868 22.2373 59.6652 22.2113C59.6479 22.1897 59.6291 22.171 59.6104 22.1522C59.7733 22.2113 59.9376 22.2676 60.1077 22.3166C61.0116 22.5792 61.9832 22.7119 62.998 22.7119C65.4846 22.7119 67.448 22.1695 68.8305 21.0992C69.5873 20.515 70.2186 19.7707 70.7232 18.8792C70.729 18.885 70.7347 18.8893 70.7405 18.8951C70.8299 18.9946 70.9264 19.0898 71.0288 19.1836C71.1182 19.2831 71.2148 19.3783 71.3171 19.4721C71.4065 19.5716 71.5031 19.6668 71.6054 19.7606C71.6948 19.8601 71.7914 19.9553 71.8937 20.0491C71.9831 20.1486 72.0797 20.2438 72.182 20.3376C72.2714 20.4371 72.368 20.5323 72.4703 20.6261C72.9749 21.1814 73.661 21.6445 74.5231 22.008C75.6273 22.4753 77.0371 22.7119 78.7151 22.7119C81.108 22.7119 83.0397 22.2662 84.4553 21.3862C85.917 20.4775 86.8453 19.1316 87.2144 17.3877C87.4421 16.3304 87.4032 15.3913 87.1019 14.5936C86.9044 14.0743 86.583 13.6142 86.1433 13.2189C86.0539 13.1194 85.9573 13.0227 85.855 12.9304C85.7656 12.8309 85.669 12.7342 85.5667 12.6419C85.4773 12.5424 85.3807 12.4457 85.2784 12.3534C85.189 12.2539 85.0924 12.1573 84.9901 12.0649C84.9526 12.0231 84.9122 11.9827 84.8719 11.9423H86.8482C87.1005 11.9423 87.3412 11.8514 87.5632 11.6711C87.791 11.4851 87.9308 11.2427 87.9668 10.9686C88.0721 10.3642 87.9568 9.73533 87.6209 9.09919L87.6165 9.10496Z" fill="#562B52"/>
<path d="M43.2936 9.1931L44.6876 7.57031L44.3085 9.67201L43.2936 9.1931Z" fill="#562B52"/>
<path d="M7.35184 9.69482L7.4859 11.4402L8.44885 9.92274L7.35184 9.69482Z" fill="#562B52"/>
<path d="M4.23522 16.1516C3.94259 16.1516 3.73069 16.0708 3.59951 15.9107C3.46833 15.7506 3.40201 15.589 3.40201 15.4275L2.24014 1.43252C2.22572 1.22769 2.2805 1.07046 2.40447 0.96083C2.52844 0.851201 2.67116 0.796387 2.83261 0.796387H6.75647C7.0491 0.796387 7.25668 0.877166 7.38065 1.03728C7.50463 1.19884 7.57382 1.35895 7.58824 1.52051L7.93853 9.68063L11.7528 1.52051C11.8264 1.3604 11.9604 1.19884 12.1579 1.03728C12.3554 0.877166 12.599 0.796387 12.8916 0.796387H17.1889C17.3647 0.796387 17.4815 0.862741 17.5392 0.994007C17.5968 1.12527 17.5896 1.27241 17.5175 1.43252L10.4367 15.4275C10.3488 15.589 10.2104 15.7491 10.0201 15.9107C9.82982 16.0723 9.58909 16.1516 9.29645 16.1516H4.23522Z" fill="#FCFDF5"/>
<path d="M9.29934 16.7284H4.23523C3.64708 16.7284 3.32129 16.4818 3.15263 16.2755C2.94217 16.0187 2.83261 15.7432 2.82541 15.4562L1.66497 1.47997C1.62893 0.983753 1.8394 0.689487 2.02247 0.527929C2.25023 0.325982 2.53133 0.219238 2.83117 0.219238H6.75503C7.35039 0.219238 7.67185 0.471672 7.83618 0.683717C8.02791 0.933266 8.13747 1.19724 8.16197 1.46698V1.49439L8.4128 7.30182L11.2296 1.27513C11.3377 1.03568 11.5236 0.810656 11.7932 0.589956C12.0959 0.343292 12.465 0.219238 12.8917 0.219238H17.1889C17.5939 0.219238 17.914 0.415416 18.0668 0.758726C18.1547 0.957789 18.2225 1.27658 18.0437 1.67182L18.0336 1.69345L10.9456 15.7043C10.823 15.9307 10.6429 16.1413 10.3949 16.3519C10.0994 16.6029 9.73036 16.7299 9.29934 16.7299V16.7284ZM4.04495 15.5442C4.04495 15.5442 4.08963 15.5745 4.23523 15.5745H9.29934C9.5026 15.5745 9.59774 15.5153 9.64964 15.4706C9.81253 15.3321 9.89181 15.2254 9.92929 15.159L16.9034 1.37322H12.8945C12.6855 1.37322 12.5832 1.43669 12.5241 1.48429C12.3583 1.61989 12.2992 1.71365 12.279 1.75837L8.46181 9.92425L7.36336 9.705L7.01307 1.56363C7.00586 1.51747 6.97415 1.45544 6.92369 1.38909C6.92225 1.39486 6.86747 1.37322 6.75503 1.37322H2.83117C2.83117 1.37322 2.81964 1.37322 2.81387 1.37467C2.81387 1.37899 2.81387 1.38476 2.81387 1.39053L3.97719 15.4028V15.4273C3.97719 15.4374 3.98873 15.4778 4.0435 15.5442H4.04495Z" fill="#562B52"/>
<path d="M13.7926 16.1516C13.6326 16.1516 13.5158 16.0824 13.4423 15.9439C13.3688 15.8054 13.376 15.6626 13.4639 15.5155L21.3116 1.52051C21.3996 1.3604 21.538 1.19884 21.7283 1.03728C21.9185 0.877166 22.1593 0.796387 22.4519 0.796387H27.3185C27.6112 0.796387 27.8187 0.877166 27.9427 1.03728C28.0667 1.19884 28.1359 1.35895 28.1503 1.52051L30.0791 15.5155C30.1079 15.7059 30.0574 15.8588 29.9263 15.9756C29.7951 16.0925 29.6481 16.1516 29.488 16.1516H25.5426C25.2643 16.1516 25.0784 16.0896 24.9832 15.9655C24.8881 15.8415 24.8261 15.7203 24.7973 15.6035L24.5782 14.1552H19.8658L19.0326 15.6035C18.9591 15.7203 18.8538 15.8415 18.714 15.9655C18.5756 16.0896 18.3594 16.1516 18.0668 16.1516H13.7926ZM21.8825 9.87825H24.3591L23.9871 5.79747L21.8825 9.87825Z" fill="#FCFDF5"/>
<path d="M29.488 16.7284H25.5426C25.0769 16.7284 24.7339 16.59 24.5248 16.3144C24.3836 16.1298 24.2855 15.9365 24.238 15.7418L24.2279 15.6884L24.0823 14.7306H20.1988L19.5213 15.9077C19.4189 16.0707 19.2762 16.2351 19.0989 16.3938C18.8524 16.6145 18.505 16.727 18.0682 16.727H13.794C13.4192 16.727 13.1064 16.5395 12.9334 16.2106C12.7662 15.8932 12.7792 15.5442 12.9666 15.2254L20.8086 1.23763C20.9282 1.01837 21.1084 0.806328 21.3549 0.597168C21.6504 0.346177 22.0194 0.219238 22.4505 0.219238H27.3171C27.9124 0.219238 28.2339 0.471672 28.3982 0.683717C28.5871 0.928939 28.6952 1.18714 28.7226 1.45256L30.6499 15.436C30.7076 15.8125 30.5865 16.1601 30.3083 16.4068C30.0733 16.6159 29.7893 16.727 29.4866 16.727L29.488 16.7284ZM25.4056 15.5644C25.4316 15.5687 25.4748 15.5745 25.5426 15.5745H29.488C29.488 15.5745 29.4981 15.5744 29.5053 15.5716L27.5766 1.57373C27.5722 1.52757 27.542 1.46554 27.4915 1.39775C27.4742 1.38909 27.4194 1.37322 27.3171 1.37322H22.4505C22.2472 1.37322 22.1521 1.43236 22.1002 1.47708C21.933 1.61989 21.8537 1.72952 21.8176 1.79587L14.091 15.5745H18.0668C18.2671 15.5745 18.3306 15.5341 18.3306 15.5326C18.4444 15.4316 18.505 15.3523 18.5381 15.3033L19.5314 13.5766H25.0741L25.3624 15.4778C25.3681 15.4951 25.3811 15.524 25.4071 15.5629L25.4056 15.5644ZM24.9905 10.4551H20.9354L24.3807 3.77495L24.9905 10.4551ZM22.8282 9.3011H23.7277L23.5922 7.82111L22.8282 9.3011Z" fill="#562B52"/>
<path d="M31.7686 16.1516C31.6071 16.1516 31.4803 16.0939 31.3851 15.9756C31.29 15.8588 31.2568 15.7203 31.2871 15.5587L34.3129 1.38778C34.3417 1.22767 34.4253 1.08775 34.5651 0.970905C34.7035 0.854064 34.8534 0.794922 35.0149 0.794922H38.4789C38.7715 0.794922 38.9762 0.875701 39.093 1.03582C39.2098 1.19737 39.2833 1.31421 39.3121 1.38634L41.3721 6.6514L45.6693 1.38634C45.7269 1.31277 45.8452 1.19593 46.0196 1.03582C46.1954 0.875701 46.429 0.794922 46.7216 0.794922H50.1856C50.3471 0.794922 50.4739 0.854064 50.5691 0.970905C50.6642 1.08775 50.6974 1.22767 50.6671 1.38778L47.6413 15.5587C47.6125 15.7203 47.5274 15.8588 47.389 15.9756C47.2507 16.0924 47.1007 16.1516 46.9393 16.1516H42.9722C42.8107 16.1516 42.6839 16.0939 42.5887 15.9756C42.4936 15.8588 42.4604 15.7203 42.4907 15.5587L43.7621 9.5479L41.8334 11.9165C41.731 12.0333 41.6027 12.1545 41.4499 12.2785C41.2971 12.4026 41.1097 12.4646 40.8906 12.4646H39.3554C39.1363 12.4646 38.9791 12.4026 38.884 12.2785C38.7888 12.1545 38.7196 12.0333 38.6764 11.9165L37.712 9.5479L36.4406 15.5587C36.4117 15.7203 36.3267 15.8588 36.1883 15.9756C36.0499 16.0924 35.9 16.1516 35.7385 16.1516H31.7714H31.7686Z" fill="#FCFDF5"/>
<path d="M46.9378 16.7284H42.9707C42.6377 16.7284 42.3422 16.5899 42.139 16.3389C41.9372 16.0908 41.8608 15.785 41.9213 15.4547L41.9242 15.4388L42.7026 11.7591L42.2644 12.2957C42.1404 12.4385 41.9862 12.5827 41.8089 12.727C41.5523 12.9361 41.2423 13.0414 40.8877 13.0414H39.3525C38.8451 13.0414 38.5668 12.8164 38.4227 12.6274C38.2973 12.4644 38.2007 12.2957 38.1358 12.1269L37.8836 11.5066L37.0028 15.6711C36.948 15.9596 36.7938 16.2163 36.5559 16.4168C36.3152 16.6202 36.0312 16.7284 35.7357 16.7284H31.7686C31.4356 16.7284 31.1401 16.5899 30.9368 16.3389C30.735 16.0908 30.66 15.785 30.7191 15.4561L30.722 15.4388L33.7449 1.27511C33.7997 0.988058 33.9539 0.729854 34.1903 0.529349C34.4325 0.32596 34.7165 0.217773 35.0106 0.217773H38.4746C39.0786 0.217773 39.3957 0.47742 39.5543 0.696677C39.7057 0.904394 39.7936 1.05009 39.8426 1.17125L41.5451 5.52322L45.2181 1.02268C45.2931 0.928917 45.4199 0.800536 45.6261 0.611571C45.9115 0.350482 46.2776 0.217773 46.7173 0.217773H50.1813C50.5129 0.217773 50.8084 0.356252 51.0116 0.605801C51.2149 0.856793 51.2898 1.1626 51.2307 1.49148L51.2279 1.50879L48.2035 15.6725C48.1487 15.961 47.9945 16.2178 47.7566 16.4183C47.5159 16.6217 47.2319 16.7299 46.9364 16.7299L46.9378 16.7284ZM43.0745 15.5744H46.9378C46.9465 15.5744 46.9681 15.5744 47.0157 15.534C47.0647 15.4922 47.069 15.4677 47.0719 15.4561L47.0748 15.4388L50.0775 1.3732H46.7173C46.5025 1.3732 46.429 1.441 46.4059 1.46263C46.1911 1.66025 46.1306 1.73094 46.1162 1.74825L41.1919 7.78214L38.7715 1.59823C38.7715 1.59823 38.7413 1.54053 38.6346 1.39051C38.6173 1.38474 38.5697 1.37176 38.476 1.37176H35.012C35.0034 1.37176 34.9817 1.37176 34.9342 1.41215C34.8852 1.45398 34.8808 1.4785 34.878 1.49004L34.8751 1.50735L31.8724 15.573H35.7357C35.7443 15.573 35.7659 15.573 35.8135 15.5326C35.8625 15.4908 35.8669 15.4662 35.8697 15.4533L35.8726 15.4374L37.5333 7.58741L39.2127 11.7129C39.2328 11.7648 39.2646 11.8225 39.3078 11.8846C39.3193 11.8846 39.3337 11.886 39.3525 11.886H40.8877C40.9987 11.886 41.0506 11.8557 41.0838 11.8283C41.2077 11.7273 41.3101 11.6321 41.3908 11.5413L43.3124 9.17991L44.3229 9.66314L43.0731 15.5687L43.0745 15.5744Z" fill="#562B52"/>
<path d="M57.2405 16.3709C56.2761 16.3709 55.3665 16.2468 54.5117 15.9987C53.6568 15.7506 52.9188 15.377 52.2975 14.8794C51.6762 14.3817 51.2235 13.7643 50.9381 13.0258C50.6527 12.2872 50.5907 11.4275 50.7522 10.4481C50.8545 9.848 50.9785 9.21186 51.1241 8.53967C51.2697 7.86747 51.4167 7.21691 51.5623 6.58799C52.0452 4.67237 52.9318 3.19239 54.2263 2.14659C55.5193 1.10079 57.3501 0.578613 59.7171 0.578613C60.6815 0.578613 61.5911 0.709879 62.4459 0.973853C63.3007 1.23783 64.0388 1.62441 64.6601 2.13649C65.2814 2.64857 65.734 3.2775 66.0195 4.02326C66.3049 4.76902 66.3669 5.62441 66.2054 6.58943C66.1031 7.21835 65.9791 7.86891 65.8321 8.54111C65.6865 9.2133 65.5394 9.84944 65.3938 10.4495C64.8965 12.4098 64.0056 13.8869 62.7198 14.8808C61.4339 15.8761 59.6075 16.3723 57.2391 16.3723L57.2405 16.3709ZM57.7234 12.0939C58.2063 12.0939 58.6215 11.9511 58.9732 11.6655C59.3235 11.3799 59.5729 10.9313 59.7185 10.3168C59.88 9.68788 60.0256 9.06617 60.1567 8.45168C60.2879 7.83718 60.4047 7.23134 60.507 6.63126C60.6238 6.01677 60.5618 5.56671 60.3211 5.28254C60.0803 4.99693 59.7257 4.85557 59.2572 4.85557C58.7887 4.85557 58.3808 4.99838 58.029 5.28254C57.6787 5.56816 57.4221 6.01677 57.2621 6.63126C57.1165 7.23134 56.9767 7.83718 56.8455 8.45168C56.7143 9.06617 56.5889 9.68788 56.4736 10.3168C56.3713 10.9313 56.4332 11.3814 56.6596 11.6655C56.8859 11.9511 57.2405 12.0939 57.7234 12.0939Z" fill="#FCFDF5"/>
<path d="M57.2405 16.9477C56.2257 16.9477 55.2541 16.815 54.3502 16.5525C53.4262 16.2842 52.6132 15.8731 51.9371 15.3307C51.2394 14.7725 50.7219 14.0671 50.4004 13.2348C50.079 12.4025 50.0054 11.4331 50.1827 10.3556C50.2865 9.74831 50.4134 9.09775 50.5604 8.41834C50.7046 7.7548 50.8531 7.09559 51.0001 6.45801C51.5133 4.4169 52.4762 2.81863 53.863 1.69782C55.2555 0.572687 57.2261 0.00146484 59.7171 0.00146484C60.7348 0.00146484 61.7093 0.142828 62.616 0.421227C63.5386 0.705396 64.3502 1.13237 65.0262 1.68917C65.7225 2.26327 66.2386 2.97875 66.5571 3.81538C66.8772 4.65491 66.9507 5.61993 66.7734 6.68304C66.6696 7.31629 66.5427 7.98271 66.3957 8.66356C66.2487 9.33864 66.1002 9.98488 65.9546 10.5864C65.4255 12.6708 64.4568 14.2662 63.073 15.3379C61.6905 16.4082 59.7271 16.9506 57.2405 16.9506V16.9477ZM59.7185 1.15401C57.4971 1.15401 55.7716 1.63868 54.5895 2.5936C53.4017 3.5543 52.5714 4.94485 52.123 6.72775C51.9789 7.34946 51.8319 8.00291 51.6891 8.66212C51.545 9.32566 51.421 9.95891 51.3216 10.5446C51.1788 11.4129 51.2307 12.1789 51.4772 12.8179C51.7281 13.4656 52.1144 13.9935 52.6579 14.4292C53.2172 14.8763 53.8947 15.2182 54.6731 15.4447C55.4717 15.6769 56.3367 15.7952 57.2419 15.7952C59.4677 15.7952 61.1932 15.3336 62.3695 14.4234C63.5458 13.5146 64.3761 12.1298 64.8374 10.3065C64.9801 9.71946 65.1271 9.08188 65.2713 8.4169C65.414 7.75624 65.538 7.11001 65.6389 6.49407C65.7816 5.63435 65.7297 4.87128 65.4832 4.22649C65.2324 3.57016 64.8446 3.03067 64.2954 2.57918C63.7346 2.11758 63.0571 1.76273 62.2787 1.52328C61.4829 1.27806 60.6209 1.15401 59.7185 1.15401ZM57.7234 12.6708C57.0589 12.6708 56.5486 12.453 56.2084 12.0245C55.8725 11.6019 55.773 11.0119 55.9042 10.2214C56.0224 9.58675 56.1478 8.9535 56.2819 8.33179C56.4145 7.71585 56.5558 7.09703 56.7028 6.49551C56.896 5.75408 57.2203 5.19872 57.6672 4.83522C58.1213 4.46594 58.6575 4.27842 59.2586 4.27842C60.0601 4.27842 60.5186 4.62173 60.7622 4.91023C61.1197 5.33287 61.2249 5.94881 61.075 6.73929C60.9741 7.3336 60.8544 7.95386 60.7218 8.57269C60.5892 9.1944 60.4393 9.82909 60.2778 10.4595C60.1048 11.1879 59.7877 11.7476 59.3379 12.1125C58.8839 12.4818 58.3404 12.6693 57.7249 12.6693L57.7234 12.6708ZM59.2572 5.43096C58.9228 5.43096 58.6402 5.52905 58.3937 5.72956C58.1415 5.93439 57.9483 6.28635 57.82 6.7768C57.6787 7.35956 57.5389 7.96685 57.4092 8.57269C57.278 9.18574 57.154 9.80745 57.0401 10.4219C56.9709 10.8359 56.9969 11.1619 57.1108 11.3062C57.1526 11.3581 57.278 11.5168 57.7234 11.5168C58.0723 11.5168 58.362 11.4187 58.61 11.2182C58.8579 11.0162 59.0424 10.6686 59.1577 10.1825C59.3178 9.5579 59.4633 8.93763 59.5931 8.33035C59.7228 7.72739 59.8381 7.12299 59.9391 6.53302C60.0198 6.10893 59.9982 5.79158 59.8814 5.65311C59.8007 5.5579 59.6479 5.42952 59.2586 5.42952L59.2572 5.43096Z" fill="#562B52"/>
<path d="M72.959 16.3708C71.3517 16.3708 70.0284 16.1516 68.9905 15.7131C67.9526 15.2745 67.2116 14.6961 66.7662 13.9806C66.3207 13.2637 66.1708 12.5035 66.3164 11.6986C66.3452 11.5674 66.4144 11.4534 66.524 11.3582C66.6336 11.263 66.7546 11.2154 66.8858 11.2154H71.0504C71.2839 11.2154 71.4555 11.2486 71.5651 11.3135C71.6746 11.3798 71.7957 11.4707 71.9269 11.5876C72.0436 11.69 72.1719 11.7809 72.3103 11.8616C72.4487 11.9424 72.613 12.0001 72.8033 12.0376C72.9936 12.0737 73.2055 12.0924 73.439 12.0924C73.9364 12.0924 74.3443 12.0376 74.6672 11.928C74.9887 11.8184 75.1718 11.6683 75.215 11.4779C75.2583 11.302 75.2078 11.1563 75.0622 11.0394C74.9166 10.9226 74.6456 10.8173 74.2506 10.7206C73.8557 10.6254 73.3079 10.5346 72.6058 10.4466C71.48 10.285 70.5372 9.98929 69.7775 9.55799C69.0179 9.12669 68.4802 8.55258 68.1659 7.83567C67.8517 7.11876 67.8041 6.27779 68.0232 5.31277C68.3302 3.82124 69.1188 2.6586 70.3902 1.82485C71.6616 0.991096 73.2906 0.574219 75.2784 0.574219C76.2717 0.574219 77.1741 0.717024 77.9856 1.00264C78.7972 1.28825 79.4906 1.66041 80.0687 2.122C80.6453 2.58215 81.0734 3.07548 81.3516 3.60199C81.6284 4.12849 81.7236 4.63336 81.6371 5.11515C81.6226 5.24642 81.5563 5.36037 81.4396 5.45557C81.3228 5.55078 81.206 5.59838 81.0893 5.59838H76.7056C76.5009 5.59838 76.3437 5.56953 76.2342 5.51039C76.1246 5.45269 76.0107 5.3647 75.894 5.24786C75.8349 5.17429 75.7181 5.09063 75.5437 4.99542C75.3678 4.90022 75.1271 4.85262 74.82 4.85262C74.4539 4.85262 74.1771 4.90743 73.9868 5.01706C73.7965 5.12669 73.6798 5.27671 73.6365 5.46712C73.6077 5.59838 73.6481 5.72388 73.7576 5.83927C73.8672 5.95612 74.0863 6.05853 74.415 6.14652C74.7436 6.23451 75.2294 6.32251 75.8724 6.4105C77.3038 6.58648 78.4181 6.89373 79.2153 7.33224C80.011 7.77076 80.5415 8.33765 80.8053 9.03293C81.0691 9.7282 81.0979 10.5504 80.8932 11.501C80.5573 13.095 79.7241 14.3052 78.3936 15.1317C77.0631 15.9583 75.2511 16.3708 72.9576 16.3708H72.959Z" fill="#FCFDF5"/>
<path d="M72.959 16.9477C71.2811 16.9477 69.8712 16.7111 68.767 16.2438C67.6224 15.7591 66.7849 15.0999 66.2775 14.2849C65.7557 13.4468 65.5783 12.5424 65.7499 11.5961L65.7542 11.573C65.8104 11.3191 65.9431 11.0999 66.1477 10.9225C66.3625 10.7364 66.6177 10.6383 66.8873 10.6383H70.8342C70.3412 10.4811 69.8943 10.2878 69.4964 10.0613C68.6301 9.56942 68.0059 8.89867 67.6412 8.06924C67.2779 7.24126 67.2188 6.27191 67.4639 5.18716C67.7983 3.5586 68.6791 2.26181 70.0774 1.34439C71.4382 0.451497 73.1896 0 75.2813 0C76.3351 0 77.311 0.154346 78.1803 0.460151C79.0481 0.765957 79.8063 1.17274 80.4305 1.67184C81.0676 2.17959 81.5491 2.73927 81.8634 3.33357C82.1978 3.96827 82.3146 4.59719 82.2093 5.20303C82.1733 5.4771 82.0335 5.71944 81.8057 5.90552C81.5852 6.08583 81.3444 6.1767 81.0907 6.1767H77.791C78.4527 6.34836 79.0178 6.56473 79.4949 6.82726C80.4117 7.33213 81.033 8.00577 81.3459 8.82798C81.6471 9.62423 81.6861 10.5647 81.4583 11.6221C81.0907 13.366 80.1624 14.7133 78.6992 15.6206C77.2822 16.5005 75.352 16.9463 72.959 16.9463V16.9477ZM66.8801 11.8197C66.7647 12.4775 66.8873 13.0847 67.2548 13.6747C67.634 14.2849 68.2942 14.7912 69.2153 15.1807C70.1768 15.5875 71.4367 15.7937 72.959 15.7937C75.1343 15.7937 76.8598 15.4057 78.0909 14.6412C79.2917 13.8954 80.024 12.8294 80.3296 11.3812C80.5098 10.5431 80.4881 9.82185 80.2662 9.23765C80.0514 8.67075 79.616 8.21205 78.9385 7.83844C78.2105 7.43743 77.1553 7.15038 75.8032 6.98449C75.1227 6.89217 74.6225 6.8013 74.2665 6.7061C73.821 6.58637 73.5255 6.43779 73.3367 6.23585C73.096 5.98053 73.0037 5.66318 73.0743 5.34295C73.1551 4.99243 73.3713 4.70826 73.7 4.51929C73.9811 4.35774 74.3472 4.2784 74.82 4.2784C75.228 4.2784 75.5538 4.34764 75.8176 4.49044C76.0482 4.61594 76.2082 4.73278 76.3178 4.85828C76.4043 4.94194 76.4663 4.98377 76.5037 5.00397C76.5037 5.00397 76.5585 5.02416 76.7041 5.02416H81.0576C81.0576 5.02416 81.0648 5.01983 81.0691 5.01551C81.134 4.66066 81.059 4.28705 80.8413 3.87306C80.602 3.42012 80.2215 2.98305 79.7097 2.57483C79.185 2.15651 78.5421 1.81176 77.7954 1.54922C77.0486 1.28669 76.2025 1.15398 75.2784 1.15398C73.4145 1.15398 71.8764 1.54345 70.7059 2.30941C69.557 3.06239 68.865 4.08366 68.5868 5.43094C68.3937 6.28056 68.4297 7.00757 68.6921 7.60476C68.9573 8.2106 69.4042 8.68518 70.0601 9.05734C70.7535 9.45114 71.6371 9.72665 72.6851 9.87667C73.4044 9.9661 73.9623 10.0599 74.3818 10.1608C74.8719 10.2791 75.2006 10.4147 75.4183 10.5893C75.7412 10.8489 75.8695 11.2239 75.7714 11.6192C75.6835 12.0043 75.3721 12.2972 74.8503 12.4746C74.464 12.6058 74.0012 12.6708 73.4362 12.6708C73.1651 12.6708 72.9143 12.6491 72.6909 12.6058C72.4401 12.5582 72.2137 12.476 72.0177 12.3635C71.8476 12.2654 71.6876 12.1515 71.5434 12.0231C71.4411 11.9322 71.3517 11.863 71.2738 11.8154C71.258 11.8096 71.1931 11.7937 71.0461 11.7937H66.9002C66.8829 11.8082 66.8772 11.8168 66.8757 11.8211L66.8801 11.8197ZM72.0436 10.9398C72.1287 11.0018 72.2181 11.0739 72.3118 11.1576C72.3968 11.2326 72.4948 11.3033 72.6001 11.3639C72.6837 11.4115 72.7889 11.449 72.9129 11.4721C73.0657 11.5023 73.243 11.5168 73.4405 11.5168C73.8657 11.5168 74.2131 11.4735 74.4726 11.3855C74.3861 11.3552 74.2708 11.3206 74.1151 11.2831C73.7432 11.1937 73.2113 11.1057 72.5352 11.0206C72.368 10.996 72.2036 10.9701 72.0422 10.9398H72.0436ZM74.3011 5.50595C74.3602 5.53047 74.4452 5.55932 74.5649 5.59106C74.8157 5.65741 75.1746 5.72665 75.6374 5.79589C75.5869 5.75261 75.5379 5.70646 75.4875 5.65741L75.4543 5.62135C75.4413 5.60981 75.3923 5.5723 75.2698 5.50451C75.2294 5.48287 75.1054 5.43238 74.8215 5.43238C74.5144 5.43238 74.3659 5.47854 74.3011 5.50739V5.50595Z" fill="#562B52"/>
<path d="M1.06963 33.4337C0.909619 33.4337 0.781323 33.376 0.686181 33.2577C0.59104 33.1409 0.557885 33.0024 0.588157 32.8408L1.39974 29.024C1.42857 28.8639 1.51651 28.724 1.6621 28.6071C1.8077 28.4903 1.96194 28.4312 2.12195 28.4312H5.93625C6.09627 28.4312 6.22168 28.4903 6.30961 28.6071C6.39755 28.724 6.42638 28.8639 6.39755 29.024L5.58596 32.8408C5.55713 33.0024 5.47208 33.1409 5.33369 33.2577C5.19531 33.3745 5.04539 33.4337 4.88393 33.4337H1.06963Z" fill="#FEABEF"/>
<path d="M4.88393 34.0106H1.06963C0.736631 34.0106 0.442558 33.8721 0.239301 33.6225C0.0374863 33.373 -0.0389151 33.0686 0.0201879 32.7397L0.0230709 32.7224L0.833214 28.9128C0.887992 28.62 1.05089 28.3604 1.30171 28.1584C1.55254 27.9579 1.82787 27.8569 2.12339 27.8569H5.93769C6.27934 27.8569 6.57485 28.0012 6.7709 28.2623C6.95542 28.5104 7.02317 28.809 6.96551 29.1292L6.96262 29.1465L6.15248 32.9561C6.0977 33.2446 5.94346 33.5014 5.70561 33.7019C5.46487 33.9053 5.18089 34.0134 4.88537 34.0134L4.88393 34.0106ZM1.17342 32.8566H4.88393C4.89258 32.8566 4.9142 32.8566 4.96177 32.8162C5.01078 32.7744 5.01655 32.7498 5.01799 32.7368L5.02088 32.721L5.8094 29.0095H2.12195C2.096 29.0095 2.06284 29.0253 2.02248 29.0585C1.98933 29.0859 1.97059 29.109 1.96626 29.1278L1.96338 29.1451L1.17486 32.8566H1.17342Z" fill="#562B52"/>
<path d="M8.1274 33.4338C7.96595 33.4338 7.83909 33.3761 7.74395 33.2578C7.64881 33.141 7.61565 33.0025 7.64593 32.8409L10.6717 18.67C10.7005 18.5099 10.7841 18.37 10.924 18.2531C11.0624 18.1363 11.2123 18.0771 11.3737 18.0771H22.4217C22.5817 18.0771 22.71 18.1363 22.8051 18.2531C22.9003 18.37 22.9334 18.5099 22.9031 18.67L22.1795 22.005C22.1507 22.1666 22.0656 22.3051 21.9272 22.4219C21.7888 22.5387 21.6389 22.5979 21.4775 22.5979H15.2082L14.8579 24.2207H20.6889C20.849 24.2207 20.9744 24.2798 21.0623 24.3967C21.1502 24.5135 21.1791 24.6534 21.1502 24.8135L20.4482 28.1255C20.4194 28.287 20.3314 28.4255 20.1858 28.5423C20.0403 28.6592 19.886 28.7183 19.726 28.7183H13.895L13.0185 32.8424C12.9897 33.0039 12.9046 33.1424 12.7663 33.2593C12.6279 33.3761 12.478 33.4352 12.3165 33.4352H8.12884L8.1274 33.4338Z" fill="#FCFDF5"/>
<path d="M12.3151 34.0106H8.12739C7.7944 34.0106 7.49888 33.8722 7.29563 33.6212C7.09381 33.3731 7.01885 33.0673 7.07795 32.7384L7.08084 32.7211L10.1037 18.5573C10.1585 18.2703 10.3128 18.0121 10.5492 17.8116C10.7914 17.6082 11.0753 17.5 11.3694 17.5H22.4173C22.7489 17.5 23.0444 17.6385 23.2477 17.888C23.4509 18.139 23.5259 18.4448 23.4668 18.7723L23.4625 18.7925L22.7402 22.1188C22.6855 22.4059 22.5312 22.6626 22.2948 22.8631C22.0541 23.0665 21.7701 23.1747 21.4746 23.1747H15.671L15.57 23.6435H20.6861C21.0277 23.6435 21.3232 23.7878 21.5193 24.0503C21.7038 24.297 21.7715 24.597 21.7139 24.9158L21.711 24.9331L21.0104 28.2393C20.9542 28.5321 20.7927 28.7932 20.5419 28.9937C20.2925 29.1942 20.0157 29.2952 19.7217 29.2952H14.3577L13.5793 32.9562C13.5245 33.2447 13.3703 33.5014 13.1324 33.7005C12.8917 33.9039 12.6077 34.0121 12.3122 34.0121L12.3151 34.0106ZM8.23262 32.8567H12.3151C12.3237 32.8567 12.3453 32.8567 12.3929 32.8163C12.4419 32.7744 12.4477 32.7499 12.4491 32.7369L12.452 32.7211L13.4265 28.1397H19.7246C19.7505 28.1397 19.7837 28.1239 19.824 28.0907C19.8745 28.0503 19.8788 28.0272 19.8802 28.02L19.8831 28.0041L20.5621 24.7961H14.1415L14.7412 22.0193H21.476C21.4847 22.0193 21.5063 22.0193 21.5539 21.9789C21.6029 21.9371 21.6072 21.9126 21.6101 21.8996L21.6144 21.8808L22.315 18.654H11.3708C11.3622 18.654 11.3406 18.654 11.293 18.6944C11.244 18.7362 11.2397 18.7607 11.2368 18.7723L11.2339 18.7896L8.23118 32.8552L8.23262 32.8567Z" fill="#562B52"/>
<path d="M29.0412 33.6531C28.1056 33.6531 27.2148 33.5319 26.3671 33.291C25.5195 33.0501 24.7843 32.6837 24.1645 32.1947C23.5432 31.7043 23.1006 31.084 22.8383 30.3296C22.5759 29.5766 22.5528 28.6808 22.772 27.6422L24.6791 18.67C24.7079 18.5099 24.7915 18.37 24.9314 18.2531C25.0698 18.1363 25.2197 18.0771 25.3811 18.0771H29.6784C29.8384 18.0771 29.9667 18.1363 30.0618 18.2531C30.1569 18.37 30.1901 18.5099 30.1598 18.67L28.2527 27.5543C28.1359 28.0952 28.1835 28.5121 28.3954 28.8049C28.6073 29.0977 28.9835 29.2434 29.5241 29.2434C30.0647 29.2434 30.5 29.0977 30.8287 28.8049C31.1574 28.5121 31.3808 28.0952 31.4976 27.5543L33.4047 18.67C33.4336 18.5099 33.5172 18.37 33.657 18.2531C33.7954 18.1363 33.9453 18.0771 34.1068 18.0771H38.404C38.564 18.0771 38.6923 18.1363 38.7874 18.2531C38.8826 18.37 38.9157 18.5099 38.8854 18.67L36.9783 27.6422C36.5401 29.7194 35.6852 31.2398 34.4138 32.2048C33.1424 33.1698 31.352 33.6531 29.0426 33.6531H29.0412Z" fill="#FCFDF5"/>
<path d="M29.0412 34.2299C28.0566 34.2299 27.1038 34.1001 26.2086 33.8462C25.2918 33.5851 24.4831 33.1812 23.8055 32.6475C23.1006 32.0907 22.5903 31.3752 22.2919 30.5199C21.995 29.6702 21.9661 28.6619 22.2069 27.5238L24.1126 18.5588C24.1674 18.2718 24.3216 18.0135 24.5595 17.813C24.8016 17.6097 25.0856 17.5015 25.3797 17.5015H29.6769C30.0085 17.5015 30.304 17.6399 30.5072 17.8895C30.7105 18.1405 30.7855 18.4463 30.7263 18.7737L30.722 18.7925L28.8149 27.6767C28.7601 27.9335 28.7226 28.2768 28.861 28.4672C28.9806 28.6331 29.2877 28.6677 29.5227 28.6677C29.9205 28.6677 30.2218 28.5725 30.4438 28.3749C30.6817 28.1643 30.8402 27.8556 30.9325 27.4329L32.8382 18.5574C32.893 18.2703 33.0472 18.0121 33.2836 17.813C33.5258 17.6097 33.8098 17.5015 34.1039 17.5015H38.4011C38.7326 17.5015 39.0282 17.6385 39.2314 17.8895C39.4347 18.1405 39.5096 18.4463 39.4505 18.7737L39.4476 18.791L37.5405 27.7633C37.0749 29.9688 36.1393 31.619 34.7598 32.6663C33.3917 33.7049 31.4673 34.2314 29.0412 34.2314V34.2299ZM25.3797 18.6554C25.371 18.6554 25.3494 18.6554 25.3018 18.6958C25.2528 18.7377 25.2485 18.7622 25.2456 18.7737L25.2427 18.791L23.3356 27.7633C23.1395 28.6922 23.1554 29.4914 23.3817 30.1405C23.6095 30.7939 23.9828 31.3176 24.5205 31.7416C25.0784 32.183 25.7531 32.5177 26.5243 32.737C27.3157 32.962 28.1633 33.0774 29.0412 33.0774C31.2107 33.0774 32.9002 32.6302 34.0635 31.7474C35.2153 30.8733 36.0053 29.4524 36.4132 27.5253L38.2987 18.6583H34.1068C34.0981 18.6583 34.0765 18.6583 34.0289 18.6987C33.9799 18.7406 33.9756 18.7651 33.9727 18.7766L33.9698 18.7954L32.0627 27.6796C31.9199 28.3417 31.6331 28.8668 31.2136 29.2404C30.7782 29.6284 30.2103 29.8246 29.5256 29.8246C28.7918 29.8246 28.2541 29.5967 27.9298 29.1466C27.6184 28.7168 27.5377 28.1412 27.6905 27.4358L29.5746 18.6583H25.3826L25.3797 18.6554Z" fill="#562B52"/>
<path d="M38.6202 33.4338C38.4587 33.4338 38.3319 33.3761 38.2367 33.2578C38.1416 33.141 38.1085 33.0025 38.1387 32.8409L41.1645 18.67C41.1933 18.5099 41.2769 18.37 41.4168 18.2531C41.5552 18.1363 41.7051 18.0771 41.8665 18.0771H45.3305C45.6232 18.0771 45.8207 18.1435 45.923 18.2747C46.0254 18.406 46.0902 18.5084 46.1205 18.582L48.5538 24.6577L49.8253 18.6685C49.8541 18.5084 49.9377 18.3685 50.0775 18.2517C50.2159 18.1348 50.3658 18.0757 50.5273 18.0757H54.4944C54.6558 18.0757 54.7827 18.1348 54.8778 18.2517C54.973 18.3685 55.0061 18.5084 54.9759 18.6685L51.9501 32.8395C51.9212 33.001 51.8362 33.1395 51.6978 33.2564C51.5594 33.3732 51.4095 33.4323 51.2481 33.4323H47.784C47.4914 33.4323 47.291 33.3631 47.1815 33.2246C47.0719 33.0861 47.0027 32.9866 46.9725 32.9289L44.4728 27.335L43.2893 32.8409C43.2605 33.0025 43.1754 33.141 43.0371 33.2578C42.8987 33.3746 42.7488 33.4338 42.5873 33.4338H38.6202Z" fill="#FCFDF5"/>
<path d="M51.2481 34.0106H47.784C47.3069 34.0106 46.9523 33.8664 46.7288 33.5822C46.5876 33.4033 46.5068 33.285 46.4578 33.1855L46.4477 33.1639L44.6674 29.1797L43.8559 32.9547C43.8011 33.2418 43.6468 33.5 43.409 33.699C43.1682 33.9024 42.8843 34.0106 42.5887 34.0106H38.6216C38.2886 34.0106 37.9931 33.8721 37.7899 33.6211C37.5881 33.373 37.5131 33.0672 37.5722 32.7383L37.5751 32.721L40.598 18.5573C40.6528 18.2703 40.807 18.0121 41.0434 17.8116C41.2856 17.6082 41.5696 17.5 41.8637 17.5H45.3277C45.8048 17.5 46.158 17.6413 46.3742 17.9197C46.5126 18.0986 46.6005 18.24 46.651 18.3655L48.3794 22.6814L49.2558 18.5559C49.3106 18.2688 49.4649 18.0106 49.7027 17.8101C49.9449 17.6067 50.2289 17.4985 50.523 17.4985H54.4901C54.8216 17.4985 55.1171 17.6356 55.3204 17.8866C55.5236 18.1376 55.5986 18.4434 55.5395 18.7708L55.5366 18.7881L52.5137 32.9518C52.4589 33.2389 52.3047 33.4971 52.0668 33.6962C51.8261 33.8995 51.5421 34.0077 51.2466 34.0077L51.2481 34.0106ZM47.6111 32.8393C47.6356 32.8465 47.6875 32.8566 47.784 32.8566H51.2481C51.2567 32.8566 51.2783 32.8566 51.3259 32.8162C51.3749 32.7744 51.3792 32.7499 51.3821 32.7369L51.385 32.7196L54.3877 18.654H50.5244C50.5157 18.654 50.4941 18.654 50.4466 18.6944C50.3975 18.7362 50.3932 18.7607 50.3903 18.7722L50.3875 18.7896L48.7225 26.6338L45.5843 18.7968C45.5843 18.7968 45.5641 18.7593 45.4978 18.6698C45.4704 18.6641 45.4185 18.6554 45.3305 18.6554H41.8665C41.8579 18.6554 41.8363 18.6554 41.7887 18.6958C41.7397 18.7376 41.7354 18.7621 41.7325 18.7737L41.7296 18.791L38.7269 32.8566H42.5902C42.5988 32.8566 42.6205 32.8566 42.668 32.8162C42.717 32.7744 42.7214 32.7499 42.7242 32.7369L42.7271 32.7196L44.2811 25.4899L47.4914 32.6749C47.4986 32.6864 47.5289 32.7326 47.6125 32.8393H47.6111Z" fill="#562B52"/>
</g>
<defs>
<clipPath id="clip0_4820_6558">
<rect width="88" height="40" fill="white"/>
</clipPath>
</defs>
</svg>
